<svg viewBox="0 0 280 280" version="1.1" xmlns="http://www.w3.org/2000/svg" xmlns:xlink="http://www.w3.org/1999/xlink">
  <g>
    <path d="M213,0 C250.003078,-6.7973552e-15 280,29.9969218 280,67 L280,213 C280,250.003078 250.003078,280 213,280 L67,280 C29.9969218,280 1.87424248e-14,250.003078 0,213 L0,67 C-4.53157013e-15,29.9969218 29.9969218,2.10082099e-14 67,0 L213,0 Z M139.5,72 C102.220779,72 72,102.220779 72,139.5 C72,176.779221 102.220779,207 139.5,207 C176.779221,207 207,176.779221 207,139.5 C207,102.220779 176.779221,72 139.5,72 Z"></path>
  </g>
</svg>