<?xml version="1.0" standalone="no"?>
<!DOCTYPE svg PUBLIC "-//W3C//DTD SVG 20010904//EN"
 "http://www.w3.org/TR/2001/REC-SVG-20010904/DTD/svg10.dtd">
<svg version="1.0" xmlns="http://www.w3.org/2000/svg"
 width="700.000000pt" height="700.000000pt" viewBox="0 0 700.000000 700.000000"
 preserveAspectRatio="xMidYMid meet">
<metadata>
Created by potrace 1.14, written by Peter Selinger 2001-2017
</metadata>
<g transform="translate(0.000000,700.000000) scale(0.100000,-0.100000)"
fill="#000000" stroke="none">
<path d="M123 6990 c-46 -11 -80 -35 -100 -73 -17 -30 -18 -197 -18 -3417 l0
-3385 20 -35 c12 -19 36 -43 55 -55 l35 -20 3385 0 3385 0 35 20 c19 12 43 36
55 55 l20 35 0 3385 0 3385 -20 35 c-12 19 -36 43 -55 55 l-35 20 -3365 2
c-1851 0 -3380 -2 -3397 -7z"/>
</g>
</svg>
